<?xml version="1.0" encoding="iso-8859-1"?>
<!-- Generator: Adobe Illustrator 19.0.0, SVG Export Plug-In . SVG Version: 6.00 Build 0)  -->
<svg version="1.1" id="Layer_1" xmlns="http://www.w3.org/2000/svg" xmlns:xlink="http://www.w3.org/1999/xlink" x="0px" y="0px"
	 viewBox="0 0 512 512" style="enable-background:new 0 0 512 512;" xml:space="preserve">
	<style type="text/css"><![CDATA[
  .color{fill: #ffffff;}
]]></style>
<g>
	<g>
		<path class="color" d="M445.182,499.994L411.791,77.037c-0.316-4.014-2.776-7.543-6.431-9.229L260.664,1.025c-2.958-1.367-6.37-1.367-9.328,0
			L106.64,67.808c-3.655,1.687-6.115,5.217-6.431,9.229L66.818,499.994c-0.245,3.094,0.814,6.151,2.922,8.43
			c2.106,2.281,5.069,3.576,8.173,3.576h356.174c3.104,0,6.067-1.297,8.174-3.576C444.368,506.144,445.427,503.088,445.182,499.994z
			 M89.956,489.739l31.931-404.452l134.113-61.897l134.113,61.899l31.931,404.451H89.956z"/>
	</g>
</g>
<g>
	<g>
		<path class="color" d="M352.147,217.565l-89.043-73.832c-0.017-0.013-0.034-0.024-0.051-0.038c-0.209-0.171-0.426-0.327-0.644-0.482
			c-0.087-0.061-0.17-0.128-0.258-0.187c-0.206-0.137-0.42-0.258-0.633-0.381c-0.11-0.063-0.218-0.134-0.331-0.193
			c-0.175-0.092-0.355-0.169-0.533-0.252c-0.157-0.072-0.313-0.151-0.472-0.216c-0.128-0.052-0.26-0.092-0.391-0.139
			c-0.213-0.077-0.424-0.157-0.639-0.22c-0.088-0.026-0.178-0.042-0.267-0.067c-0.258-0.069-0.518-0.138-0.779-0.188
			c-0.077-0.014-0.156-0.021-0.233-0.034c-0.273-0.047-0.545-0.09-0.82-0.116c-0.117-0.011-0.235-0.01-0.352-0.018
			c-0.235-0.014-0.47-0.032-0.705-0.032c-0.187,0-0.373,0.017-0.56,0.026c-0.166,0.009-0.331,0.009-0.496,0.024
			c-0.233,0.022-0.464,0.062-0.697,0.099c-0.119,0.019-0.238,0.03-0.357,0.052c-0.227,0.043-0.451,0.105-0.676,0.163
			c-0.124,0.032-0.248,0.056-0.371,0.092c-0.188,0.056-0.373,0.127-0.559,0.194c-0.157,0.056-0.316,0.105-0.471,0.167
			c-0.14,0.057-0.276,0.127-0.414,0.189c-0.198,0.09-0.397,0.177-0.59,0.278c-0.098,0.052-0.193,0.114-0.289,0.169
			c-0.227,0.128-0.453,0.258-0.672,0.404c-0.079,0.052-0.154,0.112-0.232,0.167c-0.227,0.159-0.453,0.323-0.67,0.501
			c-0.016,0.012-0.032,0.023-0.048,0.036l-89.043,73.831c-4.733,3.923-5.387,10.94-1.464,15.673
			c2.202,2.655,5.376,4.027,8.575,4.027c2.502,0,5.021-0.84,7.098-2.563l81.939-67.94l81.939,67.941
			c2.077,1.723,4.595,2.563,7.098,2.563c3.199,0,6.374-1.371,8.575-4.027C357.535,228.506,356.88,221.489,352.147,217.565z"/>
	</g>
</g>
<g>
	<g>
		<path class="color" d="M300.521,281.786c6.146,0,11.13-4.983,11.13-11.13s-4.984-11.13-11.13-11.13H267.13v-22.261h33.391
			c6.146,0,11.13-4.983,11.13-11.13s-4.984-11.13-11.13-11.13h-89.043c-6.146,0-11.13,4.983-11.13,11.13s4.984,11.13,11.13,11.13
			h33.391v22.261h-33.391c-6.146,0-11.13,4.983-11.13,11.13s4.984,11.13,11.13,11.13h33.391v22.261h-33.391
			c-6.146,0-11.13,4.983-11.13,11.13s4.984,11.13,11.13,11.13h33.391v22.261h-70.122c-6.146,0-11.13,4.983-11.13,11.13
			s4.984,11.13,11.13,11.13h119.93c6.146,0,11.13-4.983,11.13-11.13s-4.984-11.13-11.13-11.13H267.13v-22.261h33.391
			c6.146,0,11.13-4.983,11.13-11.13s-4.984-11.13-11.13-11.13H267.13v-22.261H300.521z"/>
	</g>
</g>
<g>
	<g>
		<path class="color" d="M328.413,348.568h-0.061c-6.146,0-11.1,4.983-11.1,11.13s5.014,11.13,11.161,11.13s11.13-4.983,11.13-11.13
			S334.559,348.568,328.413,348.568z"/>
	</g>
</g>
<g>
</g>
<g>
</g>
<g>
</g>
<g>
</g>
<g>
</g>
<g>
</g>
<g>
</g>
<g>
</g>
<g>
</g>
<g>
</g>
<g>
</g>
<g>
</g>
<g>
</g>
<g>
</g>
<g>
</g>
</svg>
