<!DOCTYPE svg PUBLIC "-//W3C//DTD SVG 20010904//EN" "http://www.w3.org/TR/2001/REC-SVG-20010904/DTD/svg10.dtd">
<svg version="1.0" xmlns="http://www.w3.org/2000/svg" width="84px" height="101px" viewBox="0 0 840 1010" preserveAspectRatio="xMidYMid meet">
<g id="layer101" fill="#000000" stroke="none">
 <path d="M3 996 c3 -8 11 -52 17 -98 31 -241 112 -786 119 -803 7 -16 36 -27 147 -54 l139 -33 105 26 c58 15 121 31 141 36 l36 10 16 112 c9 62 39 267 67 456 27 188 50 347 50 352 0 6 -149 10 -421 10 -362 0 -420 -2 -416 -14z"/>
 </g>
<g id="layer102" fill="#fefefe" stroke="none">
 <path d="M30 982 c0 -22 130 -875 134 -879 2 -2 61 -20 130 -39 l126 -34 126 34 c69 19 128 37 131 40 6 6 132 835 133 869 0 16 -25 17 -390 17 -215 0 -390 -4 -390 -8z m260 -73 c73 -17 106 -65 61 -88 -16 -9 -20 -7 -25 12 -3 15 -24 34 -56 51 -71 38 -66 45 20 25z m300 -12 c0 -31 -24 -51 -84 -71 -50 -17 -76 -12 -41 8 11 6 36 28 55 49 40 43 70 49 70 14z m-280 -102 c71 -18 192 -23 278 -11 66 9 77 2 45 -30 -14 -14 -29 -15 -85 -10 l-68 6 15 -36 c8 -20 12 -40 9 -45 -3 -5 8 -12 25 -15 37 -8 40 -21 6 -34 -17 -6 -35 -5 -57 4 -18 7 -55 16 -82 20 l-49 6 27 -25 c30 -28 32 -38 10 -59 -17 -18 -39 -22 -29 -5 8 13 -17 43 -69 80 -38 28 -28 42 14 19 23 -12 28 -5 39 53 l8 45 -49 5 c-27 4 -60 2 -74 -3 -49 -19 -58 -8 -24 28 25 26 34 27 110 7z m127 -301 c67 -32 95 -67 91 -114 -2 -34 -1 -35 30 -32 23 1 32 -2 32 -13 0 -24 -40 -38 -95 -32 -43 4 -53 2 -63 -14 -7 -10 -12 -21 -12 -24 0 -3 29 -5 65 -5 61 0 80 -9 53 -26 -6 -4 -31 -7 -55 -5 -37 2 -43 -1 -43 -18 0 -16 8 -20 43 -23 52 -4 51 -24 -1 -21 -30 1 -40 -3 -47 -20 -11 -24 -60 -36 -78 -18 -8 8 -7 11 5 11 22 0 35 19 43 60 6 33 4 36 -26 47 -18 7 -33 12 -33 10 -8 -28 -37 -63 -54 -65 -24 -4 -30 13 -8 21 8 3 17 20 21 37 8 37 27 47 59 32 20 -9 25 -7 35 14 9 21 7 26 -15 40 -22 15 -30 15 -66 3 -39 -13 -41 -12 -64 15 -28 32 -30 49 -8 70 22 23 39 20 77 -14 41 -35 53 -37 67 -9 16 29 32 19 45 -27 8 -32 16 -40 38 -42 24 -3 27 0 27 27 0 40 -44 88 -125 137 -55 33 -57 35 -25 29 19 -4 59 -18 87 -31z"/>
 <path d="M374 745 c3 -8 1 -28 -4 -44 -8 -30 -7 -31 23 -31 18 0 43 -3 56 -7 23 -6 24 -5 18 36 -3 24 -7 44 -9 45 -1 2 -22 6 -46 9 -34 4 -42 2 -38 -8z"/>
 <path d="M263 394 c-8 -21 21 -44 47 -37 28 7 25 20 -10 38 -28 14 -31 14 -37 -1z"/>
 <path d="M392 377 c-9 -11 -10 -17 -2 -22 15 -9 23 -1 18 21 -3 15 -4 16 -16 1z"/>
 </g>

</svg>