<!DOCTYPE svg PUBLIC "-//W3C//DTD SVG 20010904//EN" "http://www.w3.org/TR/2001/REC-SVG-20010904/DTD/svg10.dtd">
<svg version="1.0" xmlns="http://www.w3.org/2000/svg" width="94px" height="113px" viewBox="0 0 940 1130" preserveAspectRatio="xMidYMid meet">
<g id="layer101" fill="#000000" stroke="none">
 <path d="M5 1108 c5 -23 73 -492 120 -828 17 -116 30 -179 39 -186 8 -5 80 -27 161 -47 l146 -38 157 41 c86 22 157 42 158 43 1 1 9 49 18 107 8 58 42 287 76 510 33 223 60 408 60 412 0 5 -212 8 -470 8 l-470 0 5 -22z"/>
 </g>
<g id="layer102" fill="#fefefe" stroke="none">
 <path d="M30 1103 c-1 -26 145 -980 151 -986 4 -5 70 -26 148 -46 l141 -38 141 38 c78 20 144 41 148 46 4 4 38 215 75 468 38 253 70 475 73 493 l6 32 -442 0 c-242 0 -441 -3 -441 -7z m671 -80 c11 -29 7 -133 -6 -166 -7 -17 -4 -18 47 -12 62 8 78 -3 48 -30 -15 -14 -29 -16 -63 -11 -35 5 -46 4 -50 -9 -4 -8 -13 -15 -21 -15 -11 0 -7 -8 10 -25 30 -30 28 -45 -10 -64 -25 -11 -34 -11 -82 8 -29 11 -55 17 -57 13 -2 -4 2 -22 9 -39 12 -29 19 -33 52 -33 45 0 67 -13 59 -34 -8 -20 -28 -20 -91 -1 -27 8 -63 15 -79 15 -25 0 -28 2 -17 15 7 8 21 15 31 15 29 0 23 16 -21 51 -43 35 -53 69 -20 69 11 0 29 -9 39 -19 12 -12 27 -17 40 -14 11 3 41 -3 66 -12 25 -10 49 -15 53 -11 14 15 -40 45 -99 57 -83 16 -88 33 -8 27 35 -3 70 -7 78 -9 7 -2 15 1 18 8 6 15 -14 20 -129 32 -63 7 -106 8 -122 1 -34 -13 -36 13 -2 35 19 13 32 14 73 5 27 -6 81 -14 121 -18 81 -9 82 -8 82 64 l0 44 -57 0 -58 0 40 19 c22 10 50 30 62 45 29 33 51 33 64 -1z m-382 -24 c6 -18 11 -68 11 -113 0 -45 7 -110 16 -146 8 -36 13 -74 10 -86 -5 -19 -43 -44 -66 -44 -17 0 -11 29 10 50 11 11 20 29 20 40 0 10 -9 24 -20 30 -17 9 -20 8 -20 -14 0 -25 -32 -56 -59 -56 -12 0 -11 3 2 18 8 9 17 31 19 47 3 27 0 30 -24 28 -30 -2 -35 6 -16 25 17 17 59 15 86 -4 20 -13 22 -13 22 0 0 27 -58 49 -112 43 -26 -3 -48 -2 -48 3 0 10 25 37 40 42 7 2 5 17 -5 42 -11 26 -13 42 -6 49 16 16 40 -11 47 -55 5 -30 14 -42 36 -54 17 -9 32 -13 35 -10 3 3 2 35 -2 71 l-7 66 -25 -16 c-36 -24 -38 -13 -7 34 32 49 48 52 63 10z m244 -71 c23 -12 22 -34 -5 -52 -26 -18 -38 -13 -31 13 4 15 -3 22 -31 32 -24 9 -32 16 -23 21 13 9 61 1 90 -14z m-35 -374 c63 -5 92 -11 92 -19 0 -23 -28 -38 -57 -30 l-28 7 23 -24 c30 -33 29 -66 -4 -79 -15 -5 -35 -7 -45 -4 -13 4 -19 1 -19 -8 0 -9 14 -17 35 -21 23 -5 35 -13 35 -23 0 -12 -7 -14 -35 -10 -26 4 -35 2 -35 -9 0 -8 10 -14 23 -14 35 0 51 -14 33 -29 -15 -12 -44 -11 -129 5 -23 5 -26 8 -16 21 7 8 21 12 31 9 14 -3 18 0 16 12 -2 11 -16 19 -43 22 l-39 5 27 13 c15 6 35 12 43 12 9 0 14 7 12 18 -3 14 -13 16 -50 14 -51 -3 -68 12 -68 62 0 36 33 34 77 -5 19 -16 38 -27 42 -23 3 4 0 9 -6 11 -19 7 -16 21 8 34 26 13 39 -1 39 -44 0 -37 34 -34 38 4 5 42 -27 60 -114 68 -75 6 -77 7 -59 24 13 14 27 17 49 13 17 -3 73 -9 124 -12z m-255 -175 c23 -12 78 -59 122 -105 l80 -84 109 95 c60 52 115 95 123 95 7 0 13 -11 13 -24 0 -29 -38 -64 -149 -136 -64 -41 -80 -57 -76 -71 4 -13 -2 -22 -24 -33 -35 -19 -68 -12 -50 10 23 28 -32 110 -140 211 -36 35 -62 63 -58 63 4 0 27 -10 50 -21z"/>
 <path d="M360 460 c0 -13 7 -20 20 -20 11 0 20 4 20 10 0 5 -9 14 -20 20 -17 9 -20 8 -20 -10z"/>
 </g>

</svg>