<!DOCTYPE svg PUBLIC "-//W3C//DTD SVG 20010904//EN" "http://www.w3.org/TR/2001/REC-SVG-20010904/DTD/svg10.dtd">
<svg version="1.0" xmlns="http://www.w3.org/2000/svg" width="90px" height="107px" viewBox="0 0 900 1070" preserveAspectRatio="xMidYMid meet">
<g id="layer101" fill="#c71518" stroke="none">
 <path d="M7 1057 c-2 -7 8 -96 24 -197 16 -102 47 -315 70 -475 23 -160 45 -294 49 -298 4 -5 73 -26 152 -47 l145 -38 150 40 150 41 12 66 c6 36 33 221 61 411 27 190 54 373 60 406 5 34 10 71 10 83 l0 21 -439 0 c-346 0 -440 -3 -444 -13z"/>
 </g>
<g id="layer102" fill="#fefcfc" stroke="none">
 <path d="M30 1040 c0 -29 137 -930 142 -935 2 -2 64 -20 138 -40 l135 -37 141 37 141 37 12 81 c16 112 45 305 90 602 21 138 36 253 34 258 -7 12 -833 9 -833 -3z m490 -175 c7 -8 9 -22 6 -31 -5 -14 -16 -16 -63 -10 -49 6 -54 5 -43 -9 7 -8 17 -15 23 -15 6 0 21 -10 33 -21 18 -17 22 -28 17 -53 -3 -17 -10 -36 -14 -42 -5 -6 -2 -48 5 -95 12 -74 12 -86 -2 -101 -8 -10 -10 -18 -4 -18 6 0 16 -2 24 -5 7 -3 19 -1 27 4 12 8 12 12 2 25 -12 14 -11 16 7 16 11 0 30 -8 42 -18 l23 -19 -21 -21 c-42 -42 -138 -20 -215 48 -20 18 -43 30 -50 27 -14 -5 -43 31 -33 40 3 3 37 -13 76 -36 39 -23 75 -39 80 -36 6 3 10 39 9 78 0 55 -3 67 -10 52 -6 -12 -20 -27 -32 -34 -18 -12 -23 -11 -39 9 -32 39 -16 112 36 159 33 31 33 22 1 -25 -25 -36 -35 -104 -15 -104 17 0 60 74 60 104 0 35 -44 86 -73 86 -27 0 -16 20 23 42 42 22 103 24 120 3z m-79 -437 c38 -28 68 -56 66 -62 -2 -6 -23 -11 -46 -10 -48 1 -51 -7 -15 -34 22 -15 26 -24 20 -45 -4 -17 -15 -29 -31 -33 -34 -9 -50 4 -31 25 14 15 13 21 -10 54 -31 47 -28 70 11 77 l29 5 -37 38 c-21 20 -35 37 -31 37 3 0 37 -23 75 -52z"/>
 </g>

</svg>