<!DOCTYPE svg PUBLIC "-//W3C//DTD SVG 20010904//EN" "http://www.w3.org/TR/2001/REC-SVG-20010904/DTD/svg10.dtd">
<svg version="1.0" xmlns="http://www.w3.org/2000/svg" width="97px" height="116px" viewBox="0 0 970 1160" preserveAspectRatio="xMidYMid meet">
<g id="layer101" fill="#040404" stroke="none">
 <path d="M6 1151 c-6 -8 11 -135 34 -256 5 -27 19 -122 30 -210 12 -88 24 -167 27 -175 3 -8 7 -24 9 -35 30 -197 61 -376 66 -380 9 -10 289 -85 315 -85 29 0 313 76 323 87 5 4 23 105 40 223 18 118 38 256 45 305 8 50 27 181 44 292 17 112 31 212 31 223 0 20 -6 20 -479 20 -278 0 -482 -4 -485 -9z"/>
 </g>
<g id="layer102" fill="#f7f7f7" stroke="none">
 <path d="M37 1133 c-2 -5 31 -234 72 -511 57 -378 80 -506 91 -511 8 -5 77 -25 153 -45 l138 -37 152 41 c83 22 152 42 152 43 6 9 150 1019 146 1022 -8 8 -900 5 -904 -2z m665 -54 c20 -11 20 -16 14 -128 -6 -103 -9 -118 -29 -133 -21 -17 -20 -18 46 -18 73 0 88 -14 45 -44 -28 -20 -61 -20 -96 -2 -32 16 -193 39 -215 30 -9 -3 -24 -1 -33 4 -16 9 -14 12 17 31 19 12 41 18 49 15 8 -3 36 -10 62 -15 45 -10 48 -9 77 22 28 29 31 38 31 97 l0 65 -65 -7 c-43 -4 -65 -3 -65 4 0 14 57 48 93 56 15 3 31 12 34 20 6 17 9 17 35 3z m-350 -39 c7 -35 -4 -140 -18 -161 -4 -6 9 -26 30 -45 20 -18 36 -37 36 -43 0 -5 -12 -19 -27 -30 -25 -21 -26 -22 -7 -36 10 -9 27 -20 37 -26 24 -14 21 -45 -5 -63 -31 -22 -48 -20 -48 7 0 28 -68 96 -125 125 l-40 21 40 0 c22 0 51 -6 65 -14 33 -19 50 -19 50 0 0 20 -113 102 -161 116 -49 15 -49 25 -3 32 33 6 53 0 118 -31 5 -3 6 30 2 77 -6 60 -4 86 5 97 19 24 43 12 51 -26z m303 -336 c39 -3 76 -7 82 -9 20 -7 4 -32 -29 -46 -26 -10 -34 -10 -60 6 -18 10 -59 20 -99 23 -38 2 -69 8 -69 13 0 17 36 29 70 24 19 -3 67 -7 105 -11z m-6 -143 c7 -12 8 -66 4 -145 -5 -114 -8 -127 -29 -147 -21 -20 -26 -20 -54 -9 -18 7 -71 16 -118 19 l-87 6 23 23 c16 16 32 22 48 19 13 -2 24 -3 24 -1 0 1 3 9 6 18 5 12 -1 16 -24 16 -17 0 -33 4 -36 8 -9 15 12 34 35 30 18 -2 25 2 27 18 3 18 -4 22 -38 28 -36 6 -40 9 -30 21 7 8 25 15 41 15 27 0 29 3 29 40 0 63 28 49 40 -20 5 -31 9 -35 38 -38 17 -2 32 -7 32 -11 0 -17 -27 -30 -48 -24 -18 4 -22 1 -22 -16 0 -16 6 -21 24 -21 14 0 28 -5 31 -10 9 -15 -14 -40 -35 -40 -10 0 -20 -6 -23 -14 -4 -10 5 -16 33 -21 22 -4 44 -4 50 0 6 3 10 46 10 99 0 96 -5 110 -44 117 -15 3 -11 9 20 31 48 32 60 34 73 9z m-279 -26 c12 -32 16 -159 6 -203 -6 -26 -30 -52 -48 -52 -2 0 -1 23 1 52 2 28 -2 85 -9 125 -10 58 -10 76 0 88 19 22 39 18 50 -10z m193 -311 c23 -15 37 -32 35 -41 -5 -25 -54 -57 -75 -49 -17 7 -17 8 2 22 25 19 13 41 -39 70 -20 11 -33 24 -29 28 13 12 65 -3 106 -30z m-124 -24 c16 -17 33 -39 36 -51 8 -25 -11 -49 -37 -49 -16 0 -19 5 -15 22 5 17 -4 32 -39 65 l-44 43 34 0 c25 0 43 -8 65 -30z"/>
 </g>

</svg>