<!DOCTYPE svg PUBLIC "-//W3C//DTD SVG 20010904//EN" "http://www.w3.org/TR/2001/REC-SVG-20010904/DTD/svg10.dtd">
<svg version="1.0" xmlns="http://www.w3.org/2000/svg" width="90px" height="107px" viewBox="0 0 900 1070" preserveAspectRatio="xMidYMid meet">
<g id="layer101" fill="#cd1718" stroke="none">
 <path d="M8 1065 c-3 -3 -1 -25 3 -48 8 -39 17 -97 39 -257 60 -420 97 -671 102 -675 3 -3 71 -23 152 -44 l146 -39 147 39 c80 21 150 44 154 50 4 6 10 35 13 63 9 67 102 696 120 811 8 49 12 93 9 97 -5 9 -877 11 -885 3z"/>
 </g>
<g id="layer102" fill="#bc3e41" stroke="none">
 <path d="M7 1063 c-3 -5 193 -7 436 -5 347 2 442 0 450 -10 6 -10 8 -9 4 2 -3 13 -63 15 -445 18 -242 1 -443 -1 -445 -5z"/>
 <path d="M30 1034 c0 -8 23 -165 50 -347 75 -499 88 -579 94 -584 9 -10 250 -73 276 -73 14 0 81 15 150 34 109 28 126 36 133 57 8 24 137 886 137 914 0 13 -54 15 -420 15 -376 0 -420 -2 -420 -16z m494 -234 c5 -5 6 -16 2 -26 -5 -13 -14 -15 -49 -10 l-42 6 43 -36 c41 -35 54 -68 30 -77 -10 -4 -10 -7 0 -18 35 -37 -3 -71 -68 -61 -42 7 -70 7 -89 1 -7 -2 -15 1 -18 8 -7 19 32 25 81 12 53 -13 77 -2 69 31 -4 16 -14 20 -49 20 -31 0 -50 6 -64 20 -35 35 -23 61 34 76 27 7 28 8 11 20 -11 8 -28 14 -39 14 -31 0 -7 18 39 29 41 9 93 5 109 -9z m-158 -352 c35 -37 70 -81 79 -97 14 -28 14 -31 -7 -45 -38 -27 -76 -18 -47 11 21 21 -11 73 -96 162 -77 81 -78 83 -36 60 24 -13 72 -54 107 -91z m304 95 c-1 -22 -25 -51 -70 -85 -36 -26 -114 -68 -127 -68 -12 0 171 169 185 170 6 0 12 -8 12 -17z m-217 -14 c25 -7 37 -16 37 -28 0 -30 -25 -44 -57 -33 -18 7 -21 11 -10 11 24 1 21 16 -9 40 -30 23 -18 26 39 10z"/>
 <path d="M384 715 c-9 -23 15 -45 47 -45 33 0 38 19 11 43 -23 21 -51 22 -58 2z"/>
 <path d="M142 130 c0 -19 2 -27 5 -17 2 9 2 25 0 35 -3 9 -5 1 -5 -18z"/>
 <path d="M345 30 c11 -5 27 -9 35 -9 9 0 8 4 -5 9 -11 5 -27 9 -35 9 -9 0 -8 -4 5 -9z"/>
 </g>
<g id="layer103" fill="#fefdfd" stroke="none">
 <path d="M37 1043 c-3 -5 -1 -33 4 -63 7 -45 68 -448 121 -801 l11 -77 139 -36 138 -37 139 37 139 36 17 112 c94 627 122 822 118 829 -5 9 -820 9 -826 0z m487 -239 c9 -8 16 -19 16 -24 0 -16 -36 -29 -61 -24 l-24 6 26 -25 c38 -35 51 -61 36 -76 -9 -9 -8 -17 2 -33 12 -19 11 -24 -10 -41 -19 -15 -33 -17 -81 -12 -40 5 -63 3 -73 -5 -12 -10 -16 -9 -21 3 -12 32 6 39 78 32 69 -7 70 -7 66 16 -2 16 -9 23 -20 21 -10 -2 -36 2 -58 8 -30 8 -41 17 -46 36 -7 29 19 64 48 64 11 0 16 5 13 10 -3 6 -22 10 -42 10 -30 0 -34 2 -23 15 28 33 147 47 174 19z m-281 -250 c76 -39 217 -187 217 -228 0 -19 -31 -36 -65 -36 -26 0 -27 1 -12 24 15 22 14 27 -15 72 -17 27 -62 79 -101 117 -73 70 -77 78 -24 51z m435 -7 c5 -26 -69 -94 -145 -134 -33 -18 -65 -33 -69 -33 -5 0 34 43 86 94 94 93 121 108 128 73z m-198 -25 c19 -16 21 -22 11 -40 -9 -16 -21 -22 -46 -22 -40 0 -55 16 -24 25 21 7 21 8 -7 31 l-29 23 36 1 c21 0 46 -8 59 -18z"/>
 <path d="M386 715 c-7 -20 20 -45 50 -45 28 0 30 7 8 38 -17 25 -49 29 -58 7z"/>
 </g>

</svg>