<!DOCTYPE svg PUBLIC "-//W3C//DTD SVG 20010904//EN" "http://www.w3.org/TR/2001/REC-SVG-20010904/DTD/svg10.dtd">
<svg version="1.0" xmlns="http://www.w3.org/2000/svg" width="90px" height="107px" viewBox="0 0 900 1070" preserveAspectRatio="xMidYMid meet">
<g id="layer101" fill="#050505" stroke="none">
 <path d="M10 1048 c0 -28 137 -958 142 -963 1 -2 69 -21 149 -43 l146 -39 147 38 c82 21 151 40 154 43 6 7 29 156 97 623 25 172 45 324 45 338 l0 25 -440 0 -440 0 0 -22z"/>
 </g>
<g id="layer102" fill="#fcfcfc" stroke="none">
 <path d="M34 1023 c3 -16 35 -228 72 -473 36 -245 67 -446 68 -447 1 -1 63 -18 139 -38 l137 -36 137 36 c76 20 139 37 140 39 1 1 32 200 68 442 35 241 67 454 70 472 l6 32 -421 0 -422 0 6 -27z m254 -69 c3 -22 -29 -68 -58 -84 -18 -10 -18 -8 -3 37 9 27 20 54 26 61 14 17 31 10 35 -14z m366 -6 c27 -37 56 -102 56 -127 0 -10 -13 -30 -29 -45 l-29 -28 -76 13 c-41 7 -78 10 -82 7 -13 -14 9 -28 42 -28 24 0 34 -4 31 -12 -2 -8 -19 -13 -41 -12 -48 2 -48 -23 -1 -32 44 -8 40 -30 -4 -28 -46 3 -39 -22 11 -32 23 -5 43 -14 45 -21 6 -18 -38 -26 -72 -13 -16 6 -58 17 -92 24 -58 12 -64 12 -79 -5 -9 -11 -26 -19 -37 -19 -18 0 -18 1 -3 25 11 16 16 47 16 94 0 52 4 74 19 92 18 23 18 23 26 -73 l7 -97 25 10 c13 5 36 6 50 3 19 -5 24 -3 21 7 -2 8 -21 15 -41 17 -20 2 -37 7 -37 13 0 9 10 11 54 13 11 1 21 6 23 12 4 12 -28 24 -64 24 -13 0 -23 5 -23 10 0 11 20 14 58 11 14 -1 22 4 22 14 0 11 -11 15 -39 15 -46 0 -62 16 -29 29 21 8 136 -5 210 -24 21 -5 33 -1 52 19 23 22 25 28 14 53 -31 70 -38 76 -92 70 l-51 -6 25 19 c14 11 30 24 35 29 21 20 54 11 79 -21z m-280 -23 c6 -16 -48 -85 -58 -74 -6 6 16 68 30 82 11 11 21 8 28 -8z m101 -15 c10 -16 -13 -47 -45 -60 -17 -7 -33 -11 -35 -8 -6 6 54 78 65 78 5 0 12 -4 15 -10z m113 -39 c-4 -21 -52 -43 -84 -39 -25 3 -24 4 16 35 42 32 74 34 68 4z m-218 -441 c4 -68 10 -102 22 -120 14 -19 20 -22 30 -12 7 7 32 12 56 12 36 0 43 3 40 18 -2 13 -15 18 -57 20 -48 3 -52 4 -35 17 11 8 36 15 57 15 31 0 38 3 35 18 -2 12 -16 18 -48 22 -42 5 -43 6 -23 18 12 6 31 12 42 12 12 0 21 5 21 10 0 6 1 13 3 18 1 4 -23 9 -53 12 l-55 5 27 19 c25 16 33 17 78 6 32 -8 75 -10 115 -5 53 5 65 4 65 -8 0 -28 -26 -38 -84 -31 -53 6 -56 5 -56 -15 0 -18 6 -21 46 -21 38 0 45 -3 42 -17 -3 -14 -12 -17 -46 -15 -36 3 -42 1 -42 -16 0 -15 9 -21 41 -25 46 -6 54 -11 44 -27 -5 -8 -22 -10 -46 -7 -33 4 -39 2 -39 -13 0 -18 6 -22 63 -34 43 -10 27 -31 -21 -29 l-41 2 -3 -42 c-3 -35 -7 -43 -30 -51 -34 -12 -46 -2 -26 21 15 17 22 47 19 81 -1 10 -14 13 -48 11 -27 -2 -58 2 -70 9 -21 12 -23 11 -23 -13 0 -20 5 -25 24 -25 14 0 27 -4 30 -9 9 -14 -20 -32 -39 -25 -14 6 -16 3 -11 -14 9 -28 -10 -62 -34 -62 -21 0 -27 15 -10 25 6 3 10 19 10 36 0 27 -2 29 -40 29 -22 0 -40 4 -40 8 0 18 25 31 51 25 16 -3 29 -2 29 2 0 5 -27 39 -61 77 -38 42 -59 74 -55 83 8 22 18 19 65 -22 l43 -36 -2 69 c-3 94 -2 96 18 92 14 -3 18 -18 22 -98z"/>
 <path d="M311 337 c7 -15 16 -27 21 -27 14 0 9 16 -13 36 -21 19 -21 19 -8 -9z"/>
 </g>

</svg>