<!DOCTYPE svg PUBLIC "-//W3C//DTD SVG 20010904//EN" "http://www.w3.org/TR/2001/REC-SVG-20010904/DTD/svg10.dtd">
<svg version="1.0" xmlns="http://www.w3.org/2000/svg" width="94px" height="113px" viewBox="0 0 940 1130" preserveAspectRatio="xMidYMid meet">
<g id="layer101" fill="#020202" stroke="none">
 <path d="M0 1124 c0 -14 152 -1029 155 -1032 1 -1 72 -20 159 -43 l156 -40 156 40 c87 23 158 42 160 44 3 3 154 1009 154 1026 0 8 -148 11 -470 11 -259 0 -470 -3 -470 -6z"/>
 </g>
<g id="layer102" fill="#fdfdfd" stroke="none">
 <path d="M30 1103 c-1 -28 145 -980 151 -986 4 -5 70 -26 148 -46 l141 -38 142 38 c78 21 144 42 148 46 3 4 21 109 39 233 18 124 51 342 72 484 21 143 39 264 39 268 0 10 -880 11 -880 1z m325 -70 c4 -10 12 -81 17 -158 l11 -140 51 -47 c28 -26 54 -47 59 -48 14 0 7 27 -14 54 -11 14 -19 30 -17 35 6 17 48 -9 68 -41 18 -30 18 -34 3 -50 -28 -31 -71 -20 -125 30 l-28 26 0 -27 c0 -51 -65 -85 -109 -58 -11 7 -7 13 15 27 67 41 72 82 16 138 l-39 37 -17 -25 c-38 -59 -93 -5 -62 60 14 30 13 33 -9 54 -34 32 -51 78 -36 93 10 9 18 6 36 -15 13 -16 29 -36 34 -45 9 -16 13 -15 36 12 14 17 37 47 52 68 28 40 47 47 58 20z m365 -33 c6 -24 8 -66 4 -101 l-7 -60 40 7 c51 8 62 -7 26 -36 -19 -15 -35 -19 -55 -15 -22 5 -28 3 -28 -9 0 -17 -46 -44 -56 -33 -3 3 0 15 6 27 6 12 10 23 8 25 -11 12 -176 36 -208 31 -48 -7 -60 7 -25 30 22 14 34 15 70 7 l45 -10 -7 26 c-8 37 -10 39 -54 61 -21 11 -39 23 -39 27 0 11 93 -7 117 -22 27 -18 30 -52 6 -71 -16 -12 -16 -15 -3 -24 20 -13 96 -24 109 -15 6 3 11 33 11 66 l0 59 -56 0 c-61 0 -66 15 -8 26 19 4 41 15 47 25 20 33 45 23 57 -21z m-172 -206 c25 -17 29 -56 7 -74 -20 -16 -33 -5 -28 23 4 18 -3 30 -22 46 l-28 21 24 0 c14 0 35 -7 47 -16z m125 -71 c20 -18 23 -63 5 -81 -13 -13 -73 -15 -103 -2 -23 9 -9 17 40 22 42 4 46 35 9 66 l-29 24 30 -7 c17 -4 38 -14 48 -22z m-129 -197 c10 -18 28 -38 41 -44 20 -9 27 -6 54 29 32 40 55 49 64 27 9 -25 -13 -59 -59 -87 l-46 -30 41 -12 c52 -15 63 -29 46 -52 -13 -18 -14 -18 -32 0 -53 51 -70 60 -91 52 -30 -11 -28 1 6 27 l27 22 -27 11 c-14 5 -29 15 -33 20 -15 26 -25 7 -24 -46 1 -78 11 -108 34 -106 26 2 65 -14 65 -28 0 -7 -13 -9 -40 -4 -36 6 -40 5 -40 -14 0 -16 6 -20 28 -19 15 1 40 -2 56 -7 26 -7 28 -6 23 11 -20 64 -20 67 -7 62 25 -8 52 -56 57 -101 5 -39 3 -47 -17 -57 -15 -8 -38 -10 -64 -5 -23 4 -56 9 -73 12 -38 6 -42 17 -13 33 14 8 31 8 58 0 51 -14 72 -13 72 5 0 10 -10 15 -30 15 -17 0 -46 6 -65 14 -29 12 -34 12 -39 0 -11 -28 -28 -15 -21 17 4 18 1 74 -6 125 -11 84 -11 98 4 129 9 19 20 35 25 35 4 0 16 -15 26 -34z m-197 13 c15 -7 44 -15 63 -18 43 -8 49 -37 8 -34 -23 1 -28 -2 -28 -22 0 -12 7 -25 15 -29 18 -7 20 10 3 18 -7 3 -2 3 12 0 14 -4 30 -11 35 -16 14 -13 -24 -40 -48 -32 -15 5 -18 1 -15 -17 2 -14 12 -25 26 -29 31 -7 28 -26 -4 -23 -35 3 -30 -23 8 -36 29 -10 31 -13 16 -27 -14 -14 -20 -14 -62 0 -26 9 -59 16 -74 16 -26 1 -26 1 -8 15 11 8 28 15 38 15 37 0 19 30 -22 36 -41 7 -46 24 -7 24 21 1 21 2 -5 21 -47 35 -35 55 30 49 17 -1 22 4 22 24 0 22 -6 26 -55 37 -44 10 -53 15 -44 26 14 16 58 17 96 2z m-41 -280 c22 -15 46 -34 53 -43 18 -21 27 -20 51 4 19 19 60 28 60 13 0 -14 -15 -30 -37 -42 -13 -6 -23 -20 -23 -31 0 -18 -27 -40 -49 -40 -6 0 -11 12 -11 26 0 20 -18 44 -67 91 -72 69 -61 79 23 22z"/>
 <path d="M276 939 c-20 -23 -36 -45 -36 -49 0 -3 23 -31 51 -61 l50 -54 -6 95 c-3 52 -10 99 -14 103 -5 5 -25 -11 -45 -34z"/>
 <path d="M204 825 c-8 -30 -1 -40 21 -31 10 3 15 15 13 28 -4 31 -26 34 -34 3z"/>
 <path d="M300 421 c0 -3 12 -14 25 -24 24 -17 25 -17 25 1 0 13 -9 21 -25 24 -14 3 -25 2 -25 -1z"/>
 </g>

</svg>