<!DOCTYPE svg PUBLIC "-//W3C//DTD SVG 20010904//EN" "http://www.w3.org/TR/2001/REC-SVG-20010904/DTD/svg10.dtd">
<svg version="1.0" xmlns="http://www.w3.org/2000/svg" width="84px" height="101px" viewBox="0 0 840 1010" preserveAspectRatio="xMidYMid meet">
<g id="layer101" fill="#c31919" stroke="none">
 <path d="M3 973 c7 -48 54 -359 67 -438 5 -33 17 -118 25 -190 9 -71 21 -160 27 -197 11 -77 -11 -64 190 -115 l107 -28 133 34 c73 18 138 39 145 45 6 6 32 153 57 326 26 173 55 372 66 443 11 70 20 134 20 142 0 13 -55 15 -421 15 l-422 0 6 -37z"/>
 </g>
<g id="layer102" fill="#fffdfc" stroke="none">
 <path d="M30 981 c0 -22 130 -874 134 -878 2 -2 61 -19 130 -38 l126 -34 126 34 c69 19 128 36 131 39 3 2 18 94 34 203 17 109 45 302 64 429 19 128 35 237 35 243 0 8 -110 11 -390 11 -231 0 -390 -4 -390 -9z m475 -195 c0 -14 -12 -23 -41 -33 -62 -21 -87 -53 -88 -112 -1 -56 22 -89 87 -122 24 -13 37 -26 37 -39 0 -24 -24 -26 -60 -5 -14 8 -28 14 -32 15 -4 0 -4 -37 -1 -83 6 -83 5 -84 -25 -118 -36 -40 -50 -34 -27 11 15 28 15 40 5 94 -10 50 -10 67 2 96 12 30 12 38 0 64 -18 35 -27 105 -18 140 3 13 18 39 33 57 46 54 128 77 128 35z"/>
 </g>

</svg>