<!DOCTYPE svg PUBLIC "-//W3C//DTD SVG 20010904//EN" "http://www.w3.org/TR/2001/REC-SVG-20010904/DTD/svg10.dtd">
<svg version="1.0" xmlns="http://www.w3.org/2000/svg" width="98px" height="116px" viewBox="0 0 980 1160" preserveAspectRatio="xMidYMid meet">
<g id="layer101" fill="#cf1413" stroke="none">
 <path d="M10 1156 c0 -6 64 -443 90 -611 11 -72 29 -200 41 -285 13 -100 25 -159 34 -166 8 -6 83 -28 168 -49 l153 -39 158 42 c87 22 160 42 162 44 10 10 142 914 146 1003 l3 60 -477 3 c-263 1 -478 0 -478 -2z"/>
 </g>
<g id="layer102" fill="#f2504b" stroke="none">
 <path d="M36 1113 c3 -16 38 -245 78 -511 40 -271 77 -487 84 -491 6 -3 75 -24 154 -45 l143 -38 148 40 c82 22 151 43 154 45 5 5 153 980 153 1010 0 16 -29 17 -460 17 l-459 0 5 -27z m519 -54 c54 -15 105 -68 105 -108 0 -69 -46 -111 -124 -111 l-31 0 33 -26 c17 -14 32 -30 32 -35 0 -11 -155 -7 -166 4 -10 9 47 29 68 24 22 -6 23 6 3 23 -31 26 -17 36 49 36 72 0 92 11 101 55 9 40 -13 71 -68 98 -54 26 -112 27 -154 1 -53 -32 -39 -58 22 -41 30 8 37 7 42 -6 14 -35 -81 -47 -111 -14 -58 64 79 133 199 100z m-98 -360 c41 -11 88 -19 106 -17 l32 3 -30 18 -30 17 30 -6 c17 -4 50 -15 75 -26 43 -18 44 -20 26 -34 -27 -19 -56 -18 -166 11 -105 27 -142 30 -171 15 -27 -15 -25 5 3 24 29 20 37 20 125 -5z m176 -123 c47 -43 47 -97 1 -121 -43 -23 -45 -25 -29 -48 16 -26 10 -41 -22 -51 -15 -5 -23 -15 -23 -31 0 -17 9 -27 40 -39 22 -9 48 -16 56 -16 14 0 14 -3 4 -15 -15 -19 -28 -19 -62 -1 -30 16 -34 10 -17 -28 23 -50 -15 -102 -57 -78 -15 9 -15 10 4 16 19 6 22 15 22 64 0 52 -3 59 -42 102 -24 24 -29 32 -12 17 36 -32 44 -34 44 -7 0 11 7 23 15 26 8 4 15 12 15 19 0 7 -7 18 -15 25 -24 20 -17 38 19 50 51 17 60 32 41 69 -8 17 -20 31 -26 31 -20 0 -78 -29 -98 -49 -17 -17 -21 -18 -21 -5 0 9 17 34 39 55 46 47 85 51 124 15z m-213 -72 c0 -19 5 -45 11 -57 10 -21 10 -21 -5 -3 -16 20 -16 20 -31 0 -13 -18 -14 -16 -15 21 0 22 -4 47 -10 55 -14 22 7 42 31 29 13 -7 19 -21 19 -45z m-109 4 c13 -18 47 -60 76 -93 29 -33 53 -66 53 -72 0 -8 -13 -13 -31 -13 -29 0 -30 -1 -15 -22 23 -32 20 -46 -11 -50 l-28 -4 36 -16 c47 -21 55 -35 33 -59 -25 -28 -42 -24 -66 17 -21 35 -23 36 -70 32 -26 -3 -48 -1 -48 3 0 11 35 29 57 29 27 0 73 23 73 36 0 19 -40 63 -70 79 -16 8 -43 15 -61 15 -27 0 -30 2 -19 15 14 17 41 12 105 -16 69 -32 69 -21 1 56 -60 66 -74 95 -46 95 5 0 19 -15 31 -32z m447 -221 c6 -5 12 -13 12 -18 0 -15 -39 -49 -57 -49 -13 0 -14 3 -5 12 20 20 14 42 -15 60 l-28 17 40 -6 c22 -3 46 -10 53 -16z"/>
 <path d="M382 204 c3 -17 21 -21 26 -6 1 5 -4 12 -13 16 -11 4 -15 1 -13 -10z"/>
 <path d="M157 155 c2 -27 8 -54 13 -59 7 -7 5 11 -13 89 -3 11 -3 -2 0 -30z"/>
 <path d="M245 70 c11 -5 27 -9 35 -9 9 0 8 4 -5 9 -11 5 -27 9 -35 9 -9 0 -8 -4 5 -9z"/>
 </g>
<g id="layer103" fill="#fefdfd" stroke="none">
 <path d="M50 1130 c-6 -3 20 -199 66 -510 42 -278 76 -505 77 -506 1 -1 69 -19 151 -41 l149 -39 146 39 c80 21 149 41 153 45 3 4 11 41 17 82 13 91 118 793 130 870 5 30 7 57 4 60 -7 7 -881 7 -893 0z m537 -79 c82 -38 104 -129 44 -183 -17 -15 -40 -28 -50 -28 -11 0 -26 -3 -35 -6 -13 -5 -12 -9 6 -23 13 -11 19 -24 15 -34 -5 -14 -18 -16 -78 -12 -75 4 -106 18 -79 35 8 5 28 10 43 10 27 0 28 1 13 22 -9 12 -16 26 -16 30 0 5 29 8 65 8 52 0 69 4 86 21 31 31 22 78 -20 106 -57 39 -107 47 -157 28 -61 -23 -61 -50 0 -41 54 8 70 -8 36 -36 -27 -22 -68 -23 -98 -2 -40 27 -23 86 31 109 47 21 144 18 194 -4z m-115 -351 c40 -11 82 -20 93 -20 19 0 18 2 -5 21 l-25 20 39 -6 c49 -8 106 -35 106 -51 0 -32 -71 -31 -208 1 -88 22 -110 24 -134 14 -37 -15 -43 -8 -18 19 26 27 59 28 152 2z m161 -120 c19 -17 37 -42 40 -58 7 -34 -15 -70 -48 -78 -27 -7 -32 -23 -14 -41 16 -16 4 -42 -25 -53 -40 -15 -23 -46 36 -66 58 -19 58 -39 -1 -38 -22 0 -41 0 -41 -2 0 -1 5 -15 10 -30 14 -35 -10 -74 -45 -74 -32 0 -40 16 -14 30 18 10 20 17 14 63 -6 39 -16 61 -40 88 -18 20 -45 57 -60 83 -28 48 -42 56 -51 31 -4 -9 7 -30 25 -51 25 -28 30 -39 20 -50 -6 -8 -17 -14 -25 -14 -9 0 -11 -10 -7 -35 4 -26 2 -35 -8 -35 -8 0 1 -9 19 -20 28 -17 31 -23 22 -40 -27 -50 -66 -46 -93 9 -12 24 -17 26 -65 23 -42 -3 -51 -1 -46 11 5 15 46 37 68 37 8 0 25 6 39 13 22 12 23 16 13 36 -18 34 -66 61 -108 61 -27 0 -38 4 -38 15 0 34 41 31 133 -9 36 -16 38 -16 28 1 -5 10 -32 40 -60 68 -48 46 -62 77 -43 89 10 6 50 -34 77 -77 23 -36 35 -18 24 35 -11 45 -6 58 21 58 24 0 40 -29 40 -70 0 -39 23 -85 63 -127 28 -30 56 -46 43 -24 -3 4 3 16 14 26 18 17 19 20 5 41 -22 34 -19 42 22 61 42 20 50 39 30 67 -18 25 -67 14 -113 -26 -38 -34 -45 -21 -14 30 21 34 74 72 102 72 10 0 33 -14 51 -30z m111 -280 c46 -17 29 -80 -21 -80 -26 0 -29 10 -10 29 10 10 6 17 -18 37 l-30 24 27 0 c15 0 38 -4 52 -10z"/>
 </g>

</svg>