<!DOCTYPE svg PUBLIC "-//W3C//DTD SVG 20010904//EN" "http://www.w3.org/TR/2001/REC-SVG-20010904/DTD/svg10.dtd">
<svg version="1.0" xmlns="http://www.w3.org/2000/svg" width="90px" height="107px" viewBox="0 0 900 1070" preserveAspectRatio="xMidYMid meet">
<g id="layer101" fill="#000000" stroke="none">
 <path d="M27 913 c13 -87 44 -295 68 -463 25 -168 48 -319 51 -336 6 -31 8 -32 127 -63 67 -18 134 -36 148 -41 20 -6 65 2 175 31 81 22 150 42 153 45 3 2 38 224 78 492 40 268 72 488 73 490 0 1 -202 2 -449 2 l-448 0 24 -157z"/>
 </g>
<g id="layer102" fill="#fefefe" stroke="none">
 <path d="M34 1018 c8 -44 136 -898 136 -907 0 -5 63 -25 140 -46 l140 -37 138 37 c75 20 138 38 139 39 2 1 32 200 68 442 35 241 67 454 70 472 l6 32 -422 0 -421 0 6 -32z m430 -69 c3 -17 6 -42 6 -55 0 -23 3 -24 73 -24 39 0 94 7 121 15 56 17 74 9 57 -24 -10 -17 -21 -21 -62 -21 l-51 0 7 -32 c4 -18 14 -43 22 -56 16 -27 10 -74 -13 -93 -12 -9 -26 -10 -65 -1 -72 17 -89 15 -89 -8 0 -18 7 -20 55 -20 56 0 67 -8 41 -29 -9 -8 -28 -10 -49 -6 -33 7 -36 5 -39 -22 -3 -24 -8 -28 -38 -31 -28 -3 -33 -1 -22 9 6 7 12 23 12 36 0 24 -14 28 -90 24 l-35 -2 24 21 c18 16 31 19 62 14 35 -6 39 -4 39 15 0 19 -6 21 -52 23 -29 1 -70 0 -90 -1 l-37 -2 34 66 c19 37 35 73 35 81 0 8 5 14 11 14 11 0 8 -46 -7 -105 -4 -17 1 -20 28 -22 18 -1 43 -5 56 -8 15 -4 22 -1 22 9 0 8 -16 16 -41 20 -51 8 -47 31 4 31 23 0 37 5 37 13 0 6 -11 12 -24 12 -33 0 -57 10 -50 21 3 5 21 9 40 9 21 0 34 5 34 13 0 16 -169 40 -222 31 -42 -7 -47 0 -21 28 19 21 65 23 119 5 22 -8 58 -17 81 -20 l42 -7 6 55 c8 61 19 71 29 24z m93 -480 c20 -59 16 -96 -13 -116 -24 -15 -32 -15 -107 -1 -65 12 -86 13 -99 3 -17 -11 -16 -13 7 -23 29 -13 32 -34 9 -56 -19 -20 -28 -20 -20 -1 6 18 -2 26 -74 71 -52 33 -53 35 -20 28 69 -14 74 -12 89 36 24 77 32 93 40 84 5 -5 6 -33 2 -61 l-7 -53 58 -2 c32 -1 68 -2 80 -2 25 -1 34 21 24 59 -6 22 -12 24 -69 27 -80 4 -80 22 1 26 34 2 62 8 62 13 0 23 26 1 37 -32z m-61 -43 c18 -14 18 -15 -6 -24 -14 -5 -29 -8 -35 -6 -62 21 -69 25 -55 34 22 14 74 12 96 -4z m152 -83 c2 -15 -7 -25 -35 -37 -21 -10 -52 -25 -70 -34 -18 -9 -35 -13 -38 -10 -8 7 51 66 90 90 35 21 49 19 53 -9z m-190 -15 c7 -7 12 -31 12 -55 l0 -43 50 0 c37 0 50 -4 50 -15 0 -20 -40 -28 -74 -15 -23 9 -32 7 -47 -6 -18 -16 -19 -16 -19 -1 0 14 -10 17 -55 17 -30 0 -55 4 -55 10 0 18 40 31 75 24 34 -6 35 -5 35 26 0 24 -4 31 -15 26 -20 -7 -19 3 2 26 19 21 25 22 41 6z m11 -173 c16 -16 8 -45 -12 -45 -8 0 -32 16 -53 36 l-39 37 45 -7 c25 -4 51 -13 59 -21z"/>
 <path d="M470 826 c0 -13 11 -16 50 -16 48 0 50 -1 40 -20 -9 -17 -17 -19 -52 -14 -32 6 -40 4 -36 -7 3 -9 21 -14 49 -15 32 -1 43 -5 41 -15 -5 -22 -22 -28 -60 -22 -27 5 -34 3 -30 -8 6 -19 111 -25 125 -7 9 10 1 92 -11 125 -1 0 -27 4 -58 8 -50 6 -58 5 -58 -9z"/>
 </g>

</svg>