<!DOCTYPE svg PUBLIC "-//W3C//DTD SVG 20010904//EN" "http://www.w3.org/TR/2001/REC-SVG-20010904/DTD/svg10.dtd">
<svg version="1.0" xmlns="http://www.w3.org/2000/svg" width="94px" height="113px" viewBox="0 0 940 1130" preserveAspectRatio="xMidYMid meet">
<g id="layer101" fill="#ca1d1d" stroke="none">
 <path d="M0 1118 c0 -7 16 -116 35 -243 20 -126 53 -353 75 -504 22 -151 41 -276 44 -278 2 -2 74 -22 160 -45 l156 -40 156 40 c86 23 158 42 160 44 2 3 122 795 150 991 l6 47 -471 0 c-370 0 -471 -3 -471 -12z"/>
 </g>
<g id="layer102" fill="#fefefe" stroke="none">
 <path d="M30 1103 c0 -5 11 -84 25 -178 96 -641 123 -808 132 -813 6 -4 72 -23 147 -42 l136 -35 136 35 c75 19 141 38 147 42 11 7 159 976 151 990 -6 10 -874 11 -874 1z m492 -270 c22 -4 29 -3 24 5 -9 15 -3 15 29 0 51 -23 23 -58 -47 -58 -41 0 -48 -3 -48 -20 0 -11 4 -20 9 -20 5 0 22 -5 36 -10 23 -9 25 -13 15 -25 -8 -10 -21 -13 -37 -9 -21 6 -24 3 -21 -12 2 -12 14 -21 33 -24 18 -3 31 -12 33 -23 4 -17 -5 -21 -45 -17 -35 2 -30 -33 7 -47 31 -12 40 -37 16 -46 -8 -3 -38 1 -68 9 -29 7 -64 14 -78 14 l-25 1 24 19 c13 11 32 20 42 20 12 0 19 7 19 20 0 17 -7 20 -52 20 l-53 1 28 23 c24 19 26 24 13 29 -20 8 -21 31 -1 51 20 19 20 19 -20 40 -40 22 -46 52 -12 66 21 10 115 6 179 -7z m196 -237 c8 -39 -34 -75 -191 -167 -54 -31 -57 -35 -51 -65 7 -39 -15 -64 -57 -64 -31 0 -41 23 -14 34 48 18 -34 137 -175 249 -31 25 -32 28 -10 21 42 -12 134 -79 186 -137 l50 -54 49 45 c188 167 205 179 213 138z"/>
 <path d="M359 796 c13 -16 63 -46 76 -46 7 0 6 23 -3 37 -4 6 -25 15 -47 19 -37 7 -39 6 -26 -10z"/>
 <path d="M380 704 c0 -11 22 -24 41 -24 5 0 9 9 9 19 0 14 -7 19 -25 17 -14 0 -25 -6 -25 -12z"/>
 </g>

</svg>